<mxfile host="app.diagrams.net" agent="Mozilla/5.0 (Windows NT 10.0; Win64; x64) AppleWebKit/537.36 (KHTML, like Gecko) Chrome/130.0.0.0 Safari/537.36" version="24.8.4">
  <diagram name="Page-1" id="jdT3KY3K6WliEAgSrhoN">
    <mxGraphModel dx="1050" dy="522" grid="1" gridSize="10" guides="1" tooltips="1" connect="1" arrows="1" fold="1" page="1" pageScale="1" pageWidth="827" pageHeight="1169" math="0" shadow="0">
      <root>
        <mxCell id="0" />
        <mxCell id="1" parent="0" />
        <mxCell id="G2kmHZDq3IScNOoagn7K-4" value="" style="edgeStyle=orthogonalEdgeStyle;rounded=0;orthogonalLoop=1;jettySize=auto;html=1;" edge="1" parent="1" source="G2kmHZDq3IScNOoagn7K-1" target="G2kmHZDq3IScNOoagn7K-3">
          <mxGeometry relative="1" as="geometry" />
        </mxCell>
        <mxCell id="G2kmHZDq3IScNOoagn7K-1" value="eligible" style="shape=process;whiteSpace=wrap;html=1;backgroundOutline=1;" vertex="1" parent="1">
          <mxGeometry x="370" y="50" width="120" height="60" as="geometry" />
        </mxCell>
        <mxCell id="G2kmHZDq3IScNOoagn7K-7" style="edgeStyle=orthogonalEdgeStyle;rounded=0;orthogonalLoop=1;jettySize=auto;html=1;entryX=1;entryY=0.5;entryDx=0;entryDy=0;" edge="1" parent="1" source="G2kmHZDq3IScNOoagn7K-3">
          <mxGeometry relative="1" as="geometry">
            <mxPoint x="270" y="230" as="targetPoint" />
          </mxGeometry>
        </mxCell>
        <mxCell id="G2kmHZDq3IScNOoagn7K-18" style="edgeStyle=orthogonalEdgeStyle;rounded=0;orthogonalLoop=1;jettySize=auto;html=1;entryX=0.5;entryY=0;entryDx=0;entryDy=0;" edge="1" parent="1" source="G2kmHZDq3IScNOoagn7K-3">
          <mxGeometry relative="1" as="geometry">
            <mxPoint x="550" y="310" as="targetPoint" />
          </mxGeometry>
        </mxCell>
        <mxCell id="G2kmHZDq3IScNOoagn7K-3" value="do you have a booking ID" style="rhombus;whiteSpace=wrap;html=1;" vertex="1" parent="1">
          <mxGeometry x="380" y="160" width="110" height="110" as="geometry" />
        </mxCell>
        <mxCell id="G2kmHZDq3IScNOoagn7K-5" value="yes" style="text;html=1;align=center;verticalAlign=middle;whiteSpace=wrap;rounded=0;" vertex="1" parent="1">
          <mxGeometry x="300" y="180" width="60" height="30" as="geometry" />
        </mxCell>
        <mxCell id="G2kmHZDq3IScNOoagn7K-19" style="edgeStyle=orthogonalEdgeStyle;rounded=0;orthogonalLoop=1;jettySize=auto;html=1;" edge="1" parent="1" source="G2kmHZDq3IScNOoagn7K-8">
          <mxGeometry relative="1" as="geometry">
            <mxPoint x="500" y="340" as="targetPoint" />
          </mxGeometry>
        </mxCell>
        <mxCell id="G2kmHZDq3IScNOoagn7K-23" value="" style="edgeStyle=orthogonalEdgeStyle;rounded=0;orthogonalLoop=1;jettySize=auto;html=1;" edge="1" parent="1" source="G2kmHZDq3IScNOoagn7K-8" target="G2kmHZDq3IScNOoagn7K-22">
          <mxGeometry relative="1" as="geometry" />
        </mxCell>
        <mxCell id="G2kmHZDq3IScNOoagn7K-8" value="checks through the array data to make sure the corresponding Booking ID&lt;div&gt;has a FB or HB user&lt;/div&gt;" style="rounded=0;whiteSpace=wrap;html=1;" vertex="1" parent="1">
          <mxGeometry x="142" y="310" width="150" height="120" as="geometry" />
        </mxCell>
        <mxCell id="G2kmHZDq3IScNOoagn7K-10" value="" style="edgeStyle=orthogonalEdgeStyle;rounded=0;orthogonalLoop=1;jettySize=auto;html=1;" edge="1" parent="1" source="G2kmHZDq3IScNOoagn7K-9" target="G2kmHZDq3IScNOoagn7K-8">
          <mxGeometry relative="1" as="geometry" />
        </mxCell>
        <mxCell id="G2kmHZDq3IScNOoagn7K-9" value="enter bookingID" style="shape=parallelogram;perimeter=parallelogramPerimeter;whiteSpace=wrap;html=1;fixedSize=1;" vertex="1" parent="1">
          <mxGeometry x="160" y="200" width="120" height="60" as="geometry" />
        </mxCell>
        <mxCell id="G2kmHZDq3IScNOoagn7K-13" value="they are FB or HB" style="text;html=1;align=center;verticalAlign=middle;whiteSpace=wrap;rounded=0;" vertex="1" parent="1">
          <mxGeometry x="232" y="470" width="108" height="30" as="geometry" />
        </mxCell>
        <mxCell id="G2kmHZDq3IScNOoagn7K-21" value="return NO" style="rounded=0;whiteSpace=wrap;html=1;" vertex="1" parent="1">
          <mxGeometry x="500" y="320" width="120" height="60" as="geometry" />
        </mxCell>
        <mxCell id="G2kmHZDq3IScNOoagn7K-22" value="return YES" style="rounded=0;whiteSpace=wrap;html=1;" vertex="1" parent="1">
          <mxGeometry x="172" y="525" width="120" height="60" as="geometry" />
        </mxCell>
      </root>
    </mxGraphModel>
  </diagram>
</mxfile>
